<mxfile host="app.diagrams.net" agent="Mozilla/5.0 (Windows NT 10.0; Win64; x64) AppleWebKit/537.36 (KHTML, like Gecko) Chrome/135.0.0.0 Safari/537.36 Edg/135.0.0.0" version="26.2.14">
  <diagram name="Seite-1" id="wcatKIITOAddB180gC_4">
    <mxGraphModel dx="1418" dy="906" grid="1" gridSize="10" guides="1" tooltips="1" connect="1" arrows="1" fold="1" page="1" pageScale="1" pageWidth="827" pageHeight="1169" math="0" shadow="0">
      <root>
        <mxCell id="0" />
        <mxCell id="1" parent="0" />
        <mxCell id="PZLCt4sNYvR6H3oS_Bd3-4" style="rounded=0;orthogonalLoop=1;jettySize=auto;html=1;entryX=0;entryY=0.5;entryDx=0;entryDy=0;endArrow=none;startFill=0;" parent="1" source="PZLCt4sNYvR6H3oS_Bd3-1" target="PZLCt4sNYvR6H3oS_Bd3-2" edge="1">
          <mxGeometry relative="1" as="geometry" />
        </mxCell>
        <mxCell id="PZLCt4sNYvR6H3oS_Bd3-16" style="rounded=0;orthogonalLoop=1;jettySize=auto;html=1;entryX=0;entryY=0.5;entryDx=0;entryDy=0;endArrow=none;startFill=0;" parent="1" source="PZLCt4sNYvR6H3oS_Bd3-1" target="PZLCt4sNYvR6H3oS_Bd3-10" edge="1">
          <mxGeometry relative="1" as="geometry" />
        </mxCell>
        <mxCell id="PZLCt4sNYvR6H3oS_Bd3-1" value="Gast" style="shape=umlActor;verticalLabelPosition=bottom;verticalAlign=top;html=1;outlineConnect=0;" parent="1" vertex="1">
          <mxGeometry x="90" y="140" width="30" height="60" as="geometry" />
        </mxCell>
        <mxCell id="PZLCt4sNYvR6H3oS_Bd3-2" value="registrieren" style="ellipse;whiteSpace=wrap;html=1;" parent="1" vertex="1">
          <mxGeometry x="200" y="110" width="120" height="50" as="geometry" />
        </mxCell>
        <mxCell id="PZLCt4sNYvR6H3oS_Bd3-17" style="rounded=0;orthogonalLoop=1;jettySize=auto;html=1;entryX=0;entryY=0.5;entryDx=0;entryDy=0;endArrow=none;startFill=0;" parent="1" source="PZLCt4sNYvR6H3oS_Bd3-3" target="PZLCt4sNYvR6H3oS_Bd3-7" edge="1">
          <mxGeometry relative="1" as="geometry" />
        </mxCell>
        <mxCell id="PZLCt4sNYvR6H3oS_Bd3-18" value="eigene" style="edgeLabel;html=1;align=center;verticalAlign=middle;resizable=0;points=[];" parent="PZLCt4sNYvR6H3oS_Bd3-17" vertex="1" connectable="0">
          <mxGeometry x="-0.0499" y="5" relative="1" as="geometry">
            <mxPoint as="offset" />
          </mxGeometry>
        </mxCell>
        <mxCell id="PZLCt4sNYvR6H3oS_Bd3-19" style="rounded=0;orthogonalLoop=1;jettySize=auto;html=1;endArrow=none;startFill=0;" parent="1" source="PZLCt4sNYvR6H3oS_Bd3-3" target="PZLCt4sNYvR6H3oS_Bd3-8" edge="1">
          <mxGeometry relative="1" as="geometry">
            <mxPoint x="470" y="131.7964071856287" as="sourcePoint" />
            <mxPoint x="622" y="150" as="targetPoint" />
          </mxGeometry>
        </mxCell>
        <mxCell id="PZLCt4sNYvR6H3oS_Bd3-20" value="eigene" style="edgeLabel;html=1;align=center;verticalAlign=middle;resizable=0;points=[];" parent="PZLCt4sNYvR6H3oS_Bd3-19" vertex="1" connectable="0">
          <mxGeometry x="-0.0193" y="3" relative="1" as="geometry">
            <mxPoint as="offset" />
          </mxGeometry>
        </mxCell>
        <mxCell id="PZLCt4sNYvR6H3oS_Bd3-21" style="rounded=0;orthogonalLoop=1;jettySize=auto;html=1;entryX=0;entryY=0.5;entryDx=0;entryDy=0;endArrow=none;startFill=0;" parent="1" source="PZLCt4sNYvR6H3oS_Bd3-3" target="PZLCt4sNYvR6H3oS_Bd3-9" edge="1">
          <mxGeometry relative="1" as="geometry" />
        </mxCell>
        <mxCell id="PZLCt4sNYvR6H3oS_Bd3-22" value="eigene" style="edgeLabel;html=1;align=center;verticalAlign=middle;resizable=0;points=[];" parent="PZLCt4sNYvR6H3oS_Bd3-21" vertex="1" connectable="0">
          <mxGeometry x="0.0936" y="-3" relative="1" as="geometry">
            <mxPoint x="-18" y="-17" as="offset" />
          </mxGeometry>
        </mxCell>
        <mxCell id="PZLCt4sNYvR6H3oS_Bd3-3" value="registrierter&lt;div&gt;Nutzer&lt;/div&gt;" style="shape=umlActor;verticalLabelPosition=bottom;verticalAlign=top;html=1;outlineConnect=0;" parent="1" vertex="1">
          <mxGeometry x="384" y="60" width="30" height="60" as="geometry" />
        </mxCell>
        <mxCell id="PZLCt4sNYvR6H3oS_Bd3-5" style="rounded=0;orthogonalLoop=1;jettySize=auto;html=1;entryX=0;entryY=0.3333333333333333;entryDx=0;entryDy=0;entryPerimeter=0;endArrow=none;startFill=0;" parent="1" source="PZLCt4sNYvR6H3oS_Bd3-2" target="PZLCt4sNYvR6H3oS_Bd3-3" edge="1">
          <mxGeometry relative="1" as="geometry" />
        </mxCell>
        <mxCell id="PZLCt4sNYvR6H3oS_Bd3-7" value="Rezepte erstellen" style="ellipse;whiteSpace=wrap;html=1;" parent="1" vertex="1">
          <mxGeometry x="610" y="70" width="120" height="60" as="geometry" />
        </mxCell>
        <mxCell id="PZLCt4sNYvR6H3oS_Bd3-8" value="Rezepte bearbeiten" style="ellipse;whiteSpace=wrap;html=1;" parent="1" vertex="1">
          <mxGeometry x="610" y="150" width="120" height="60" as="geometry" />
        </mxCell>
        <mxCell id="PZLCt4sNYvR6H3oS_Bd3-9" value="Rezepte lÃ¶schen" style="ellipse;whiteSpace=wrap;html=1;" parent="1" vertex="1">
          <mxGeometry x="610" y="220" width="120" height="60" as="geometry" />
        </mxCell>
        <mxCell id="PZLCt4sNYvR6H3oS_Bd3-10" value="alle Rezepte&amp;nbsp;&lt;div&gt;&lt;span style=&quot;background-color: transparent; color: light-dark(rgb(0, 0, 0), rgb(255, 255, 255));&quot;&gt;ansehen&lt;/span&gt;&lt;/div&gt;" style="ellipse;whiteSpace=wrap;html=1;" parent="1" vertex="1">
          <mxGeometry x="200" y="200" width="120" height="60" as="geometry" />
        </mxCell>
        <mxCell id="PZLCt4sNYvR6H3oS_Bd3-24" style="rounded=0;orthogonalLoop=1;jettySize=auto;html=1;entryX=0.5;entryY=1;entryDx=0;entryDy=0;endArrow=none;startFill=0;" parent="1" source="PZLCt4sNYvR6H3oS_Bd3-13" target="PZLCt4sNYvR6H3oS_Bd3-10" edge="1">
          <mxGeometry relative="1" as="geometry" />
        </mxCell>
        <mxCell id="PZLCt4sNYvR6H3oS_Bd3-25" style="rounded=0;orthogonalLoop=1;jettySize=auto;html=1;entryX=0;entryY=1;entryDx=0;entryDy=0;endArrow=none;startFill=0;" parent="1" source="PZLCt4sNYvR6H3oS_Bd3-13" target="PZLCt4sNYvR6H3oS_Bd3-9" edge="1">
          <mxGeometry relative="1" as="geometry" />
        </mxCell>
        <mxCell id="PZLCt4sNYvR6H3oS_Bd3-26" value="alle" style="edgeLabel;html=1;align=center;verticalAlign=middle;resizable=0;points=[];" parent="PZLCt4sNYvR6H3oS_Bd3-25" vertex="1" connectable="0">
          <mxGeometry x="-0.0121" y="4" relative="1" as="geometry">
            <mxPoint as="offset" />
          </mxGeometry>
        </mxCell>
        <mxCell id="PZLCt4sNYvR6H3oS_Bd3-13" value="Admin" style="shape=umlActor;verticalLabelPosition=bottom;verticalAlign=top;html=1;outlineConnect=0;" parent="1" vertex="1">
          <mxGeometry x="340" y="330" width="30" height="60" as="geometry" />
        </mxCell>
        <mxCell id="PZLCt4sNYvR6H3oS_Bd3-27" style="rounded=0;orthogonalLoop=1;jettySize=auto;html=1;entryX=0.224;entryY=0.955;entryDx=0;entryDy=0;entryPerimeter=0;endArrow=none;startFill=0;" parent="1" source="PZLCt4sNYvR6H3oS_Bd3-13" target="PZLCt4sNYvR6H3oS_Bd3-8" edge="1">
          <mxGeometry relative="1" as="geometry" />
        </mxCell>
        <mxCell id="PZLCt4sNYvR6H3oS_Bd3-28" value="alle" style="edgeLabel;html=1;align=center;verticalAlign=middle;resizable=0;points=[];" parent="PZLCt4sNYvR6H3oS_Bd3-27" vertex="1" connectable="0">
          <mxGeometry x="0.0829" y="1" relative="1" as="geometry">
            <mxPoint as="offset" />
          </mxGeometry>
        </mxCell>
        <mxCell id="PZLCt4sNYvR6H3oS_Bd3-29" style="rounded=0;orthogonalLoop=1;jettySize=auto;html=1;entryX=0.139;entryY=0.73;entryDx=0;entryDy=0;entryPerimeter=0;endArrow=none;startFill=0;" parent="1" source="PZLCt4sNYvR6H3oS_Bd3-13" target="PZLCt4sNYvR6H3oS_Bd3-7" edge="1">
          <mxGeometry relative="1" as="geometry" />
        </mxCell>
        <mxCell id="PZLCt4sNYvR6H3oS_Bd3-30" value="alle" style="edgeLabel;html=1;align=center;verticalAlign=middle;resizable=0;points=[];" parent="PZLCt4sNYvR6H3oS_Bd3-29" vertex="1" connectable="0">
          <mxGeometry x="-0.0042" y="2" relative="1" as="geometry">
            <mxPoint y="1" as="offset" />
          </mxGeometry>
        </mxCell>
        <mxCell id="PZLCt4sNYvR6H3oS_Bd3-32" style="rounded=0;orthogonalLoop=1;jettySize=auto;html=1;entryX=0.778;entryY=-0.021;entryDx=0;entryDy=0;endArrow=none;startFill=0;entryPerimeter=0;" parent="1" source="PZLCt4sNYvR6H3oS_Bd3-3" target="PZLCt4sNYvR6H3oS_Bd3-10" edge="1">
          <mxGeometry relative="1" as="geometry" />
        </mxCell>
        <mxCell id="_rjExBOoQms9siOGPFMz-1" style="rounded=0;orthogonalLoop=1;jettySize=auto;html=1;entryX=0;entryY=0.5;entryDx=0;entryDy=0;endArrow=none;startFill=0;" edge="1" parent="1" source="_rjExBOoQms9siOGPFMz-3" target="_rjExBOoQms9siOGPFMz-4">
          <mxGeometry relative="1" as="geometry" />
        </mxCell>
        <mxCell id="_rjExBOoQms9siOGPFMz-2" style="rounded=0;orthogonalLoop=1;jettySize=auto;html=1;entryX=0;entryY=0.5;entryDx=0;entryDy=0;endArrow=none;startFill=0;" edge="1" parent="1" source="_rjExBOoQms9siOGPFMz-3" target="_rjExBOoQms9siOGPFMz-16">
          <mxGeometry relative="1" as="geometry" />
        </mxCell>
        <mxCell id="_rjExBOoQms9siOGPFMz-3" value="Gast" style="shape=umlActor;verticalLabelPosition=bottom;verticalAlign=top;html=1;outlineConnect=0;" vertex="1" parent="1">
          <mxGeometry x="87" y="586" width="30" height="60" as="geometry" />
        </mxCell>
        <mxCell id="_rjExBOoQms9siOGPFMz-4" value="registrieren" style="ellipse;whiteSpace=wrap;html=1;" vertex="1" parent="1">
          <mxGeometry x="197" y="556" width="120" height="50" as="geometry" />
        </mxCell>
        <mxCell id="_rjExBOoQms9siOGPFMz-5" style="rounded=0;orthogonalLoop=1;jettySize=auto;html=1;entryX=0;entryY=0.5;entryDx=0;entryDy=0;endArrow=none;startFill=0;" edge="1" parent="1" source="_rjExBOoQms9siOGPFMz-11" target="_rjExBOoQms9siOGPFMz-13">
          <mxGeometry relative="1" as="geometry" />
        </mxCell>
        <mxCell id="_rjExBOoQms9siOGPFMz-6" value="eigene" style="edgeLabel;html=1;align=center;verticalAlign=middle;resizable=0;points=[];" vertex="1" connectable="0" parent="_rjExBOoQms9siOGPFMz-5">
          <mxGeometry x="-0.0499" y="5" relative="1" as="geometry">
            <mxPoint as="offset" />
          </mxGeometry>
        </mxCell>
        <mxCell id="_rjExBOoQms9siOGPFMz-7" style="rounded=0;orthogonalLoop=1;jettySize=auto;html=1;endArrow=none;startFill=0;" edge="1" parent="1" source="_rjExBOoQms9siOGPFMz-11" target="_rjExBOoQms9siOGPFMz-14">
          <mxGeometry relative="1" as="geometry">
            <mxPoint x="467" y="577.7964071856287" as="sourcePoint" />
            <mxPoint x="619" y="596" as="targetPoint" />
          </mxGeometry>
        </mxCell>
        <mxCell id="_rjExBOoQms9siOGPFMz-8" value="alle auÃer eigene" style="edgeLabel;html=1;align=center;verticalAlign=middle;resizable=0;points=[];" vertex="1" connectable="0" parent="_rjExBOoQms9siOGPFMz-7">
          <mxGeometry x="-0.0193" y="3" relative="1" as="geometry">
            <mxPoint y="1" as="offset" />
          </mxGeometry>
        </mxCell>
        <mxCell id="_rjExBOoQms9siOGPFMz-9" style="rounded=0;orthogonalLoop=1;jettySize=auto;html=1;entryX=0;entryY=0.5;entryDx=0;entryDy=0;endArrow=none;startFill=0;" edge="1" parent="1" source="_rjExBOoQms9siOGPFMz-11" target="_rjExBOoQms9siOGPFMz-15">
          <mxGeometry relative="1" as="geometry" />
        </mxCell>
        <mxCell id="_rjExBOoQms9siOGPFMz-10" value="alle" style="edgeLabel;html=1;align=center;verticalAlign=middle;resizable=0;points=[];" vertex="1" connectable="0" parent="_rjExBOoQms9siOGPFMz-9">
          <mxGeometry x="0.0936" y="-3" relative="1" as="geometry">
            <mxPoint x="-18" y="-17" as="offset" />
          </mxGeometry>
        </mxCell>
        <mxCell id="_rjExBOoQms9siOGPFMz-11" value="registrierter&lt;div&gt;Nutzer&lt;/div&gt;" style="shape=umlActor;verticalLabelPosition=bottom;verticalAlign=top;html=1;outlineConnect=0;" vertex="1" parent="1">
          <mxGeometry x="381" y="506" width="30" height="60" as="geometry" />
        </mxCell>
        <mxCell id="_rjExBOoQms9siOGPFMz-12" style="rounded=0;orthogonalLoop=1;jettySize=auto;html=1;entryX=0;entryY=0.3333333333333333;entryDx=0;entryDy=0;entryPerimeter=0;endArrow=none;startFill=0;" edge="1" parent="1" source="_rjExBOoQms9siOGPFMz-4" target="_rjExBOoQms9siOGPFMz-11">
          <mxGeometry relative="1" as="geometry" />
        </mxCell>
        <mxCell id="_rjExBOoQms9siOGPFMz-13" value="Rezepte erstellen, bearbeiten, lÃ¶schen" style="ellipse;whiteSpace=wrap;html=1;" vertex="1" parent="1">
          <mxGeometry x="607" y="516" width="120" height="60" as="geometry" />
        </mxCell>
        <mxCell id="_rjExBOoQms9siOGPFMz-14" value="Rezepte bewerten" style="ellipse;whiteSpace=wrap;html=1;" vertex="1" parent="1">
          <mxGeometry x="607" y="596" width="120" height="60" as="geometry" />
        </mxCell>
        <mxCell id="_rjExBOoQms9siOGPFMz-15" value="Rezepte kommentieren" style="ellipse;whiteSpace=wrap;html=1;" vertex="1" parent="1">
          <mxGeometry x="607" y="666" width="120" height="60" as="geometry" />
        </mxCell>
        <mxCell id="_rjExBOoQms9siOGPFMz-16" value="alle Rezepte&amp;nbsp;&lt;div&gt;&lt;span style=&quot;background-color: transparent; color: light-dark(rgb(0, 0, 0), rgb(255, 255, 255));&quot;&gt;ansehen, suchen, filtern&lt;/span&gt;&lt;/div&gt;" style="ellipse;whiteSpace=wrap;html=1;" vertex="1" parent="1">
          <mxGeometry x="197" y="646" width="120" height="60" as="geometry" />
        </mxCell>
        <mxCell id="_rjExBOoQms9siOGPFMz-17" style="rounded=0;orthogonalLoop=1;jettySize=auto;html=1;entryX=0.5;entryY=1;entryDx=0;entryDy=0;endArrow=none;startFill=0;" edge="1" parent="1" source="_rjExBOoQms9siOGPFMz-20" target="_rjExBOoQms9siOGPFMz-16">
          <mxGeometry relative="1" as="geometry" />
        </mxCell>
        <mxCell id="_rjExBOoQms9siOGPFMz-18" style="rounded=0;orthogonalLoop=1;jettySize=auto;html=1;entryX=0;entryY=1;entryDx=0;entryDy=0;endArrow=none;startFill=0;" edge="1" parent="1" source="_rjExBOoQms9siOGPFMz-20" target="_rjExBOoQms9siOGPFMz-15">
          <mxGeometry relative="1" as="geometry" />
        </mxCell>
        <mxCell id="_rjExBOoQms9siOGPFMz-19" value="alle" style="edgeLabel;html=1;align=center;verticalAlign=middle;resizable=0;points=[];" vertex="1" connectable="0" parent="_rjExBOoQms9siOGPFMz-18">
          <mxGeometry x="-0.0121" y="4" relative="1" as="geometry">
            <mxPoint as="offset" />
          </mxGeometry>
        </mxCell>
        <mxCell id="_rjExBOoQms9siOGPFMz-20" value="Admin" style="shape=umlActor;verticalLabelPosition=bottom;verticalAlign=top;html=1;outlineConnect=0;" vertex="1" parent="1">
          <mxGeometry x="337" y="776" width="30" height="60" as="geometry" />
        </mxCell>
        <mxCell id="_rjExBOoQms9siOGPFMz-21" style="rounded=0;orthogonalLoop=1;jettySize=auto;html=1;entryX=0.224;entryY=0.955;entryDx=0;entryDy=0;entryPerimeter=0;endArrow=none;startFill=0;" edge="1" parent="1" source="_rjExBOoQms9siOGPFMz-20" target="_rjExBOoQms9siOGPFMz-14">
          <mxGeometry relative="1" as="geometry" />
        </mxCell>
        <mxCell id="_rjExBOoQms9siOGPFMz-22" value="alle" style="edgeLabel;html=1;align=center;verticalAlign=middle;resizable=0;points=[];" vertex="1" connectable="0" parent="_rjExBOoQms9siOGPFMz-21">
          <mxGeometry x="0.0829" y="1" relative="1" as="geometry">
            <mxPoint as="offset" />
          </mxGeometry>
        </mxCell>
        <mxCell id="_rjExBOoQms9siOGPFMz-23" style="rounded=0;orthogonalLoop=1;jettySize=auto;html=1;entryX=0.139;entryY=0.73;entryDx=0;entryDy=0;entryPerimeter=0;endArrow=none;startFill=0;" edge="1" parent="1" source="_rjExBOoQms9siOGPFMz-20" target="_rjExBOoQms9siOGPFMz-13">
          <mxGeometry relative="1" as="geometry" />
        </mxCell>
        <mxCell id="_rjExBOoQms9siOGPFMz-24" value="alle" style="edgeLabel;html=1;align=center;verticalAlign=middle;resizable=0;points=[];" vertex="1" connectable="0" parent="_rjExBOoQms9siOGPFMz-23">
          <mxGeometry x="-0.0042" y="2" relative="1" as="geometry">
            <mxPoint y="1" as="offset" />
          </mxGeometry>
        </mxCell>
        <mxCell id="_rjExBOoQms9siOGPFMz-25" style="rounded=0;orthogonalLoop=1;jettySize=auto;html=1;entryX=0.778;entryY=-0.021;entryDx=0;entryDy=0;endArrow=none;startFill=0;entryPerimeter=0;" edge="1" parent="1" source="_rjExBOoQms9siOGPFMz-11" target="_rjExBOoQms9siOGPFMz-16">
          <mxGeometry relative="1" as="geometry" />
        </mxCell>
      </root>
    </mxGraphModel>
  </diagram>
</mxfile>
